<?xml version="1.0" encoding="UTF-8"?>
<!DOCTYPE svg PUBLIC "-//W3C//DTD SVG 1.1//EN" "http://www.w3.org/Graphics/SVG/1.1/DTD/svg11.dtd">
<!-- Creator: CorelDRAW 2021 (64-Bit) -->
<svg xmlns="http://www.w3.org/2000/svg" xml:space="preserve" width="10mm" height="10mm" version="1.1" style="shape-rendering:geometricPrecision; text-rendering:geometricPrecision; image-rendering:optimizeQuality; fill-rule:evenodd; clip-rule:evenodd"
viewBox="0 0 1000 1000"
 xmlns:xlink="http://www.w3.org/1999/xlink"
 xmlns:xodm="http://www.corel.com/coreldraw/odm/2003">
 <defs>
  <style type="text/css">
   <![CDATA[
    .str0 {stroke:#25282D;stroke-width:42.33;stroke-miterlimit:22.9256}
    .fil0 {fill:none}
   ]]>
  </style>
 </defs>
 <g id="Layer_x0020_1">
  <metadata id="CorelCorpID_0Corel-Layer"/>
  <path class="fil0 str0" d="M345.44 508.41l0.05 219.8c0,82.76 18.32,108.66 131.44,108.54l184.64 -0.07c31.03,0.01 51.85,1.21 70.78,-15.7 16.66,-14.87 25.75,-37.63 18.93,-66.39 25.55,-24.66 68.28,-28.45 30.87,-105.51 5.46,-6.2 80.72,-58.3 3.46,-114.3l20.83 -22.38c19.48,-27.36 10.39,-72.87 -24.78,-88.97 -24.47,-11.21 -168.57,-5.97 -217.53,-6.13 3.44,-72.24 44.7,-136.18 28.82,-215.26 -22.25,-110.92 -105.79,-112.06 -122.25,-65.25 -7.73,21.98 -0.21,88.31 -5.3,118 -4.55,26.57 -25.79,62.26 -40.18,83.29 -28.26,41.32 -79.8,101.76 -79.78,170.33z"/>
  <path class="fil0 str0" d="M119.34 747.77c0,88.46 -0.54,82.91 87.02,82.6 87.7,-0.31 84.33,1.3 84.32,-86.99l0 -202.22c-0.08,-70.63 8.76,-95.2 -53.48,-95.01 -19.47,0.07 -78.72,-2.49 -93.31,2.33 -29.78,9.85 -24.71,40.78 -24.68,70.7l0.13 228.59z"/>
 </g>
</svg>
