<?xml version="1.0" encoding="UTF-8"?>
<!DOCTYPE svg PUBLIC "-//W3C//DTD SVG 1.1//EN" "http://www.w3.org/Graphics/SVG/1.1/DTD/svg11.dtd">
<!-- Creator: CorelDRAW 2021 (64-Bit) -->
<svg xmlns="http://www.w3.org/2000/svg" xml:space="preserve" width="10mm" height="10mm" version="1.1" style="shape-rendering:geometricPrecision; text-rendering:geometricPrecision; image-rendering:optimizeQuality; fill-rule:evenodd; clip-rule:evenodd"
viewBox="0 0 1000 1000"
 xmlns:xlink="http://www.w3.org/1999/xlink"
 xmlns:xodm="http://www.corel.com/coreldraw/odm/2003">
 <defs>
  <style type="text/css">
   <![CDATA[
    .str2 {stroke:#25282D;stroke-width:42.33;stroke-miterlimit:22.9256}
    .str0 {stroke:red;stroke-width:42.33;stroke-miterlimit:22.9256}
    .str3 {stroke:#25282D;stroke-width:25.4;stroke-miterlimit:22.9256}
    .str1 {stroke:#25282D;stroke-width:16.93;stroke-linecap:round;stroke-linejoin:round;stroke-miterlimit:22.9256}
    .fil0 {fill:none}
    .fil1 {fill:#25282D}
   ]]>
  </style>
 </defs>
 <g id="Layer_x0020_1">
  <metadata id="CorelCorpID_0Corel-Layer"/>
  <g id="_2536683211984">
   <path class="fil0 str0" d="M-1051.54 335.62l0.05 219.8c0,82.76 18.32,108.66 131.44,108.54l184.64 -0.07c31.03,0.01 51.85,1.21 70.78,-15.7 16.66,-14.87 25.75,-37.63 18.93,-66.39 25.55,-24.66 68.28,-28.45 30.87,-105.51 5.46,-6.2 80.72,-58.3 3.46,-114.3l20.83 -22.38c19.48,-27.36 10.39,-72.87 -24.78,-88.97 -24.47,-11.21 -168.57,-5.97 -217.53,-6.13 3.44,-72.24 44.7,-136.18 28.82,-215.26 -22.25,-110.92 -105.79,-112.06 -122.25,-65.25 -7.73,21.98 -0.21,88.31 -5.3,118 -4.55,26.57 -25.79,62.26 -40.18,83.29 -28.26,41.32 -79.8,101.76 -79.78,170.33z"/>
   <path class="fil0 str0" d="M-1277.64 574.98c0,88.46 -0.54,82.91 87.02,82.6 87.7,-0.31 84.33,1.3 84.32,-86.99l0 -202.22c-0.08,-70.63 8.76,-95.2 -53.48,-95.01 -19.47,0.07 -78.72,-2.49 -93.31,2.33 -29.78,9.85 -24.71,40.78 -24.68,70.7l0.13 228.59z"/>
  </g>
  <path class="fil1 str1" d="M-1092.84 897.18l11.29 8.67c26.82,0.02 104.32,-25.81 133.42,-34.05 74.17,-21.02 32.08,-1.4 130.83,16.58 294.2,53.59 519.99,-306.8 282.68,-554.65 -89.28,-93.24 -260.26,-124.16 -386.62,-51.33 -141.14,81.34 -210.22,263.57 -138.99,414.86 16.32,34.66 15.64,25.13 3.44,64.81 -8.22,26.75 -39.33,114.99 -36.05,135.11z"/>
  <path class="fil0 str2" d="M258.5 871.69c25.89,8.9 29.28,-1.35 67.19,-36.44l92.37 -79.1c22.84,-18.5 71.31,-66.71 90.24,-76.82 15.92,9.01 39.39,32.12 59.34,50.56l118.2 101.73c41.03,35.41 51.32,56.7 75.09,34.4l-2.06 -646.98c-20.23,-17.16 -94.68,-8.91 -127.48,-8.91l-272.56 0c-82.32,-0.09 -104.4,-10.44 -104.4,29.7 0.01,182.85 -5.91,492.94 4.07,631.86z"/>
  <path class="fil0 str3" d="M5924.38 320.24c-138.14,19.1 -241.97,63.34 -316.95,135.82 -33.57,32.46 -68.33,79.88 -92.07,131.96 -17.58,38.57 -49.2,133.14 -41.86,181.92 25.37,-41.79 129.88,-97.52 181.72,-117.11 73.75,-27.86 177.01,-45.54 268.64,-35.97l0.6 138.92c14.93,-4.2 32.2,-22.93 42.96,-32.19 7.66,-6.58 13.27,-13.51 20.14,-19.34l184.12 -163.12c18.5,-17.65 75.02,-60.44 82.71,-76.68 -6.97,-8.81 -28.31,-27.69 -39.13,-36.61l-82.01 -71.93c-15.45,-12.36 -26.03,-24.44 -42.01,-37.11l-81.52 -72.34c-16.34,-15.35 -71.08,-65.57 -85.15,-72.18l-0.19 145.96z"/>
 </g>
</svg>
