<?xml version="1.0" encoding="UTF-8"?>
<!DOCTYPE svg PUBLIC "-//W3C//DTD SVG 1.1//EN" "http://www.w3.org/Graphics/SVG/1.1/DTD/svg11.dtd">
<!-- Creator: CorelDRAW 2021 (64-Bit) -->
<svg xmlns="http://www.w3.org/2000/svg" xml:space="preserve" width="43.3492mm" height="43.3492mm" version="1.1" style="shape-rendering:geometricPrecision; text-rendering:geometricPrecision; image-rendering:optimizeQuality; fill-rule:evenodd; clip-rule:evenodd"
viewBox="0 0 4334.92 4334.92"
 xmlns:xlink="http://www.w3.org/1999/xlink"
 xmlns:xodm="http://www.corel.com/coreldraw/odm/2003">
 <defs>
  <style type="text/css">
   <![CDATA[
    .str0 {stroke:red;stroke-width:33.87;stroke-linecap:round;stroke-linejoin:round;stroke-miterlimit:22.9256}
    .str1 {stroke:red;stroke-width:16.93;stroke-linecap:round;stroke-linejoin:round;stroke-miterlimit:22.9256}
    .fil0 {fill:none}
    .fil2 {fill:red}
    .fil1 {fill:red;fill-rule:nonzero}
   ]]>
  </style>
 </defs>
 <g id="Layer_x0020_1">
  <metadata id="CorelCorpID_0Corel-Layer"/>
  <g id="_2536985975568">
   <path class="fil0 str0" d="M847.61 426.5l2622.78 0 0 478.47 -2622.78 0 0 -5.53 0 -472.94zm2622.78 478.47l-2622.78 0 0 2538.85m0 0l0 5.53 2622.78 0 0 -2544.38m-2622.78 2544.38l0 467.54 2622.78 0 0 -467.54 -2622.78 0z"/>
   <path class="fil1" d="M1046.39 3714.91c-1.61,1.34 -3.69,2.41 -6.23,3.21 -2.54,0.81 -5.42,1.21 -8.63,1.21 -4.29,0 -7.87,-0.54 -10.75,-1.61 -2.87,-1.07 -4.78,-2.94 -5.72,-5.62 -4.28,-12.45 -7.93,-22.79 -10.94,-31.02 -3.01,-8.23 -5.39,-15.36 -7.13,-21.39l-0.8 0c-0.4,8.3 -0.74,15.9 -1.01,22.79 -0.26,6.9 -0.5,13.62 -0.7,20.18 -0.2,6.56 -0.43,13.19 -0.7,19.88 -0.27,6.69 -0.6,14.06 -1.01,22.09 -1.47,0.53 -3.44,1.04 -5.92,1.5 -2.48,0.47 -5.05,0.71 -7.73,0.71 -5.22,0 -9.3,-0.91 -12.25,-2.71 -2.94,-1.81 -4.41,-4.92 -4.41,-9.34 0,-2.54 0.1,-6.06 0.3,-10.54 0.2,-4.49 0.46,-9.64 0.8,-15.46 0.33,-5.83 0.74,-12.08 1.2,-18.78 0.47,-6.69 0.94,-13.48 1.41,-20.38 0.47,-6.89 0.9,-13.72 1.3,-20.48 0.41,-6.76 0.81,-13.02 1.21,-18.77 1.07,-1.47 3.25,-3.11 6.53,-4.92 3.27,-1.81 7.86,-2.71 13.75,-2.71 6.29,0 11.24,1 14.86,3.01 3.61,2.01 6.36,5.29 8.23,9.84 1.47,3.61 3.01,7.66 4.62,12.15 1.6,4.48 3.21,9.07 4.82,13.75 1.6,4.69 3.18,9.34 4.72,13.96 1.54,4.61 2.97,8.86 4.31,12.75l1.01 0c3.74,-11.78 7.49,-23.2 11.24,-34.24 3.75,-11.04 7.03,-20.31 9.84,-27.81 1.87,-0.94 4.25,-1.74 7.13,-2.41 2.88,-0.67 6.05,-1 9.54,-1 6.02,0 10.84,0.87 14.45,2.61 3.62,1.74 5.76,4.28 6.43,7.63 0.53,2.68 1.14,6.76 1.8,12.25 0.67,5.48 1.34,11.78 2.01,18.87 0.67,7.1 1.34,14.56 2.01,22.39 0.67,7.83 1.27,15.39 1.81,22.69 0.53,7.29 1,13.95 1.4,19.98 0.4,6.02 0.67,10.71 0.81,14.05 -2.01,1.21 -4.15,2.11 -6.43,2.71 -2.27,0.61 -5.15,0.91 -8.63,0.91 -4.42,0 -8.2,-0.81 -11.35,-2.41 -3.14,-1.61 -4.85,-4.76 -5.12,-9.44 -0.93,-15.53 -1.57,-29.75 -1.91,-42.67 -0.33,-12.92 -0.7,-23.52 -1.1,-31.82l-1 0c-1.61,5.62 -3.92,12.71 -6.93,21.28 -3.01,8.57 -6.73,19.61 -11.14,33.13z"/>
   <path id="_1" class="fil1" d="M1193.16 3718.52l-39.35 0c-1.48,4.82 -2.85,9.58 -4.12,14.26 -1.27,4.69 -2.38,8.84 -3.31,12.45 -1.74,0.54 -3.55,1 -5.42,1.41 -1.88,0.4 -4.15,0.6 -6.83,0.6 -5.89,0 -10.34,-1.04 -13.35,-3.11 -3.02,-2.08 -4.52,-5.06 -4.52,-8.94 0,-1.87 0.27,-3.68 0.8,-5.42 0.54,-1.74 1.14,-3.75 1.81,-6.02 0.94,-3.62 2.27,-8.1 4.02,-13.46 1.74,-5.35 3.64,-11.14 5.72,-17.37 2.07,-6.22 4.25,-12.61 6.52,-19.17 2.28,-6.56 4.49,-12.82 6.63,-18.78 2.14,-5.95 4.08,-11.41 5.82,-16.36 1.74,-4.95 3.21,-8.9 4.42,-11.85 2.01,-1.2 5.12,-2.34 9.34,-3.41 4.21,-1.07 8.4,-1.61 12.55,-1.61 6.02,0 11.34,0.84 15.96,2.51 4.62,1.68 7.6,4.45 8.93,8.34 2.55,7.09 5.29,15.32 8.24,24.69 2.94,9.37 5.92,19.01 8.93,28.92 3.01,9.9 5.92,19.68 8.74,29.31 2.81,9.64 5.28,18.27 7.42,25.9 -1.47,1.75 -3.64,3.15 -6.52,4.22 -2.88,1.07 -6.33,1.61 -10.34,1.61 -5.76,0 -9.81,-1.01 -12.15,-3.01 -2.34,-2.01 -4.05,-5.16 -5.12,-9.44l-4.82 -16.27zm-19.48 -68.67c-1.87,6.03 -4.18,12.89 -6.92,20.59 -2.75,7.69 -5.32,15.56 -7.73,23.59l28.71 0c-2.28,-8.43 -4.58,-16.5 -6.93,-24.2 -2.34,-7.69 -4.31,-14.35 -5.92,-19.98l-1.21 0z"/>
   <path id="_2" class="fil1" d="M1355.8 3726.76c0,3.88 -0.74,6.76 -2.21,8.63 -1.47,1.88 -3.81,3.75 -7.03,5.62 -1.87,1.07 -4.15,2.08 -6.82,3.02 -2.68,0.93 -5.66,1.74 -8.94,2.4 -3.28,0.67 -6.69,1.21 -10.24,1.61 -3.55,0.4 -7.06,0.6 -10.54,0.6 -9.64,0 -18.57,-1.23 -26.81,-3.71 -8.23,-2.48 -15.42,-6.33 -21.58,-11.55 -6.16,-5.22 -10.98,-11.84 -14.46,-19.87 -3.48,-8.04 -5.22,-17.67 -5.22,-28.92 0,-10.57 1.77,-19.91 5.32,-28.01 3.55,-8.1 8.37,-14.86 14.46,-20.28 6.09,-5.42 13.25,-9.5 21.48,-12.25 8.24,-2.74 17.1,-4.11 26.61,-4.11 12.45,0 22.35,1.94 29.71,5.82 7.37,3.88 11.05,8.83 11.05,14.86 0,3.08 -0.8,5.79 -2.41,8.13 -1.61,2.34 -3.48,4.18 -5.62,5.52 -3.35,-2.14 -7.53,-4.15 -12.55,-6.02 -5.02,-1.88 -10.95,-2.81 -17.77,-2.81 -5.62,0 -10.74,0.9 -15.36,2.71 -4.62,1.81 -8.6,4.38 -11.95,7.73 -3.35,3.34 -5.96,7.43 -7.83,12.25 -1.87,4.82 -2.81,10.24 -2.81,16.26 0,6.56 0.9,12.28 2.71,17.17 1.81,4.88 4.32,8.93 7.53,12.15 3.21,3.21 7.06,5.62 11.54,7.22 4.49,1.61 9.34,2.41 14.56,2.41 3.21,0 6.13,-0.33 8.74,-1 2.61,-0.67 4.65,-1.34 6.12,-2.01l0 -22.69 -23.09 0c-0.8,-1.34 -1.54,-3.08 -2.21,-5.22 -0.67,-2.14 -1,-4.42 -1,-6.82 0,-4.29 1,-7.43 3.01,-9.44 2.01,-2.01 4.62,-3.01 7.83,-3.01l33.73 0c3.75,0 6.69,1.03 8.84,3.11 2.14,2.07 3.21,4.98 3.21,8.73l0 41.77z"/>
   <path id="_3" class="fil1" d="M1450.17 3718.52l-39.35 0c-1.48,4.82 -2.85,9.58 -4.12,14.26 -1.27,4.69 -2.38,8.84 -3.31,12.45 -1.74,0.54 -3.55,1 -5.42,1.41 -1.88,0.4 -4.15,0.6 -6.83,0.6 -5.89,0 -10.34,-1.04 -13.35,-3.11 -3.02,-2.08 -4.52,-5.06 -4.52,-8.94 0,-1.87 0.27,-3.68 0.8,-5.42 0.54,-1.74 1.14,-3.75 1.81,-6.02 0.94,-3.62 2.27,-8.1 4.02,-13.46 1.74,-5.35 3.64,-11.14 5.72,-17.37 2.07,-6.22 4.25,-12.61 6.52,-19.17 2.28,-6.56 4.49,-12.82 6.63,-18.78 2.14,-5.95 4.08,-11.41 5.82,-16.36 1.74,-4.95 3.21,-8.9 4.42,-11.85 2.01,-1.2 5.12,-2.34 9.34,-3.41 4.21,-1.07 8.4,-1.61 12.55,-1.61 6.02,0 11.34,0.84 15.96,2.51 4.62,1.68 7.6,4.45 8.93,8.34 2.55,7.09 5.29,15.32 8.24,24.69 2.94,9.37 5.92,19.01 8.93,28.92 3.01,9.9 5.92,19.68 8.74,29.31 2.81,9.64 5.28,18.27 7.42,25.9 -1.47,1.75 -3.64,3.15 -6.52,4.22 -2.88,1.07 -6.33,1.61 -10.34,1.61 -5.76,0 -9.81,-1.01 -12.15,-3.01 -2.34,-2.01 -4.05,-5.16 -5.12,-9.44l-4.82 -16.27zm-19.48 -68.67c-1.87,6.03 -4.18,12.89 -6.92,20.59 -2.75,7.69 -5.32,15.56 -7.73,23.59l28.71 0c-2.28,-8.43 -4.58,-16.5 -6.93,-24.2 -2.34,-7.69 -4.31,-14.35 -5.92,-19.98l-1.21 0z"/>
   <path id="_4" class="fil1" d="M1585.91 3684.39c0,-12.98 -3.18,-22.66 -9.54,-29.01 -6.36,-6.36 -14.63,-9.54 -24.8,-9.54 -2.41,0 -4.68,0.07 -6.83,0.2 -2.14,0.13 -4.28,0.4 -6.42,0.8l0 74.7c1.74,0.4 3.85,0.7 6.32,0.9 2.48,0.2 4.86,0.3 7.13,0.3 10.44,0 18.74,-3.18 24.9,-9.54 6.16,-6.35 9.24,-15.96 9.24,-28.81zm32.52 -0.4c0,10.71 -1.6,20.08 -4.82,28.11 -3.21,8.03 -7.73,14.72 -13.55,20.08 -5.82,5.35 -12.85,9.37 -21.08,12.05 -8.23,2.67 -17.37,4.01 -27.41,4.01 -2.27,0 -4.85,-0.07 -7.73,-0.2 -2.88,-0.13 -5.82,-0.37 -8.83,-0.7 -3.02,-0.34 -6.06,-0.8 -9.14,-1.41 -3.08,-0.6 -5.89,-1.37 -8.43,-2.31 -6.96,-2.54 -10.44,-7.09 -10.44,-13.65l0 -95.58c0,-2.67 0.7,-4.75 2.1,-6.22 1.41,-1.47 3.45,-2.68 6.13,-3.61 5.49,-1.74 11.31,-2.88 17.47,-3.42 6.15,-0.53 11.78,-0.8 16.86,-0.8 10.31,0 19.68,1.27 28.11,3.81 8.44,2.55 15.67,6.46 21.69,11.75 6.02,5.29 10.71,11.91 14.05,19.88 3.35,7.96 5.02,17.37 5.02,28.21z"/>
   <path id="_5" class="fil1" d="M1671.64 3745.03c-1.47,0.4 -3.55,0.77 -6.23,1.1 -2.67,0.34 -5.48,0.51 -8.43,0.51 -6.29,0 -10.67,-1.08 -13.15,-3.22 -2.48,-2.14 -3.71,-6.02 -3.71,-11.64l0 -108.63c1.47,-0.27 3.58,-0.6 6.32,-1 2.74,-0.41 5.45,-0.61 8.13,-0.61 6.03,0 10.38,1.01 13.05,3.02 2.68,2 4.02,5.95 4.02,11.84l0 35.34 43.17 0 0 -48.59c1.47,-0.27 3.58,-0.6 6.32,-1 2.75,-0.41 5.53,-0.61 8.34,-0.61 5.89,0 10.17,1.07 12.85,3.22 2.67,2.14 4.01,6.15 4.01,12.04l0 108.23c-1.47,0.4 -3.54,0.77 -6.22,1.1 -2.68,0.34 -5.49,0.51 -8.43,0.51 -6.3,0 -10.68,-1.08 -13.16,-3.22 -2.47,-2.14 -3.71,-6.02 -3.71,-11.64l0 -35.14 -43.17 0 0 48.39z"/>
   <path id="_6" class="fil1" d="M1866.81 3748.64c-8.3,0 -15.69,-1.13 -22.19,-3.41 -6.49,-2.28 -12.01,-5.49 -16.56,-9.64 -4.55,-4.15 -8.03,-9.13 -10.44,-14.96 -2.41,-5.82 -3.62,-12.35 -3.62,-19.57l0 -77.91c1.48,-0.27 3.58,-0.6 6.33,-1 2.74,-0.41 5.52,-0.61 8.33,-0.61 6.02,0 10.34,1.01 12.95,3.02 2.61,2 3.92,5.95 3.92,11.84l0 64.05c0,7.23 1.97,12.82 5.92,16.77 3.95,3.95 9.07,5.92 15.36,5.92 6.43,0 11.61,-1.97 15.56,-5.92 3.95,-3.95 5.93,-9.54 5.93,-16.77l0 -77.3c1.47,-0.27 3.58,-0.6 6.32,-1 2.74,-0.41 5.52,-0.61 8.33,-0.61 6.03,0 10.34,1.01 12.95,3.02 2.61,2 3.92,5.95 3.92,11.84l0 64.66c0,7.22 -1.21,13.75 -3.61,19.57 -2.41,5.83 -5.89,10.81 -10.45,14.96 -4.55,4.15 -10.1,7.36 -16.66,9.64 -6.56,2.28 -13.99,3.41 -22.29,3.41z"/>
   <path id="_7" class="fil1" d="M2054.95 3741.41c-1.88,1.61 -4.42,2.92 -7.63,3.92 -3.21,1 -7.03,1.51 -11.45,1.51 -4.55,0 -8.83,-0.74 -12.85,-2.21 -4.01,-1.47 -7.36,-4.82 -10.04,-10.04l-23.29 -44.98c-2.27,-4.28 -4.38,-8.57 -6.32,-12.85 -1.94,-4.28 -3.85,-8.77 -5.73,-13.45l-1.4 0.4c0.67,8.03 1.07,15.69 1.2,22.99 0.14,7.3 0.2,14.36 0.2,21.18l0 37.35c-1.33,0.27 -3.31,0.57 -5.92,0.9 -2.61,0.34 -5.32,0.51 -8.13,0.51 -6.02,0 -10.24,-1.04 -12.65,-3.12 -2.41,-2.07 -3.61,-5.79 -3.61,-11.14l0 -103.41c1.6,-2.27 4.18,-4.05 7.73,-5.32 3.54,-1.27 7.32,-1.91 11.34,-1.91 4.69,0 9,0.74 12.95,2.21 3.95,1.48 7.26,4.75 9.94,9.84l23.49 45.18c2.28,4.28 4.39,8.57 6.33,12.85 1.94,4.28 3.85,8.77 5.72,13.45l0.8 -0.2c-0.67,-8.97 -1.03,-17.47 -1.1,-25.5 -0.07,-8.03 -0.1,-15.73 -0.1,-23.09l0 -33.33c1.34,-0.27 3.31,-0.6 5.92,-1 2.61,-0.41 5.39,-0.61 8.33,-0.61 6.03,0 10.25,1.04 12.65,3.12 2.41,2.07 3.62,5.79 3.62,11.14l0 105.61z"/>
   <path id="_8" class="fil1" d="M2099.72 3746.64c-6.29,0 -10.67,-1.08 -13.15,-3.22 -2.48,-2.14 -3.71,-6.02 -3.71,-11.64l0 -108.63c1.47,-0.27 3.58,-0.6 6.32,-1 2.74,-0.41 5.52,-0.61 8.33,-0.61 6.03,0 10.34,1.01 12.95,3.02 2.61,2 3.92,5.95 3.92,11.84l0 108.63c-1.47,0.4 -3.55,0.77 -6.23,1.1 -2.67,0.34 -5.48,0.51 -8.43,0.51z"/>
   <path id="_9" class="fil1" d="M2211.36 3741.62c-1.74,1.47 -4.39,2.74 -7.93,3.81 -3.55,1.07 -7.4,1.61 -11.55,1.61 -5.09,0 -9.44,-0.74 -13.05,-2.21 -3.62,-1.47 -6.09,-3.55 -7.43,-6.23 -1.61,-3.21 -3.48,-7.32 -5.62,-12.34 -2.14,-5.02 -4.39,-10.58 -6.73,-16.67 -2.34,-6.09 -4.79,-12.62 -7.33,-19.58 -2.54,-6.96 -4.98,-13.95 -7.33,-20.98 -2.34,-7.03 -4.55,-13.92 -6.62,-20.68 -2.08,-6.76 -3.85,-13.02 -5.32,-18.78 1.74,-1.6 4.18,-3.14 7.32,-4.61 3.15,-1.48 6.53,-2.21 10.14,-2.21 4.42,0 8,0.97 10.75,2.91 2.74,1.94 4.85,5.39 6.32,10.34 4.02,13.92 8.03,27.31 12.05,40.16 4.01,12.85 8.3,26.1 12.85,39.75l1.2 0c4.02,-12.98 8.17,-27.3 12.45,-42.96 4.29,-15.67 8.3,-31.19 12.05,-46.59 2.14,-1.07 4.42,-1.94 6.83,-2.61 2.41,-0.67 5.15,-1 8.23,-1 4.42,0 8.2,1 11.34,3.01 3.15,2.01 4.72,5.29 4.72,9.84 0,2.81 -0.7,7.03 -2.11,12.65 -1.4,5.62 -3.24,11.98 -5.52,19.07 -2.27,7.1 -4.82,14.53 -7.63,22.29 -2.81,7.77 -5.59,15.13 -8.33,22.09 -2.74,6.96 -5.35,13.12 -7.83,18.47 -2.48,5.36 -4.45,9.17 -5.92,11.45z"/>
   <path id="_10" class="fil1" d="M2284.44 3745.63c-5.09,0 -9.14,-1.5 -12.15,-4.52 -3.01,-3.01 -4.51,-7.06 -4.51,-12.14l0 -88.75c0,-5.09 1.5,-9.14 4.51,-12.15 3.01,-3.01 7.06,-4.52 12.15,-4.52l66.46 0c0.81,1.34 1.54,3.01 2.21,5.02 0.67,2.01 1.01,4.28 1.01,6.83 0,4.42 -0.98,7.69 -2.92,9.84 -1.94,2.14 -4.65,3.21 -8.13,3.21l-44.57 0 0 22.49 46.58 0c0.8,1.34 1.54,3.01 2.21,5.02 0.67,2.01 1,4.28 1,6.82 0,4.42 -0.93,7.67 -2.81,9.74 -1.87,2.08 -4.55,3.11 -8.03,3.11l-38.95 0 0 25.1 53.21 0c0.8,1.34 1.53,3.08 2.2,5.22 0.67,2.15 1.01,4.49 1.01,7.03 0,4.42 -0.97,7.63 -2.91,9.64 -1.94,2.01 -4.59,3.01 -7.93,3.01l-59.64 0z"/>
   <path id="_11" class="fil1" d="M2474.39 3662.71c0,7.76 -2.04,14.72 -6.13,20.88 -4.08,6.16 -9.6,11.04 -16.56,14.66 5.49,7.22 10.74,14.02 15.76,20.38 5.02,6.35 8.73,11.47 11.14,15.36 -1.2,4.28 -3.44,7.53 -6.72,9.73 -3.28,2.21 -6.86,3.32 -10.74,3.32 -5.09,0 -8.97,-1.11 -11.65,-3.32 -2.68,-2.2 -5.22,-5.25 -7.63,-9.13l-19.28 -29.92 -13.85 0 0 40.36c-1.47,0.4 -3.55,0.77 -6.23,1.1 -2.67,0.34 -5.48,0.51 -8.43,0.51 -6.29,0 -10.67,-1.08 -13.15,-3.22 -2.48,-2.14 -3.71,-6.02 -3.71,-11.64l0 -97.39c0,-2.67 0.7,-4.75 2.1,-6.22 1.41,-1.47 3.45,-2.61 6.13,-3.41 4.28,-1.61 9.43,-2.75 15.46,-3.42 6.02,-0.67 12.31,-1 18.87,-1 18.21,0 31.86,3.78 40.96,11.34 9.11,7.57 13.66,17.91 13.66,31.03zm-53.61 17.66c6.42,0 11.64,-1.43 15.66,-4.31 4.01,-2.88 6.02,-7.26 6.02,-13.15 0,-11.52 -7.69,-17.27 -23.09,-17.27 -2.14,0 -4.08,0.1 -5.82,0.3 -1.74,0.2 -3.48,0.43 -5.22,0.7l0 33.73 12.45 0z"/>
   <path id="_12" class="fil1" d="M2535.23 3722.94c7.09,0 12.15,-1.24 15.16,-3.71 3.01,-2.48 4.52,-5.46 4.52,-8.94 0,-3.21 -1.17,-5.79 -3.52,-7.73 -2.34,-1.94 -5.85,-3.65 -10.54,-5.12l-10.24 -3.21c-5.62,-1.74 -10.71,-3.65 -15.26,-5.72 -4.55,-2.08 -8.43,-4.55 -11.64,-7.43 -3.22,-2.88 -5.73,-6.29 -7.53,-10.24 -1.81,-3.95 -2.72,-8.74 -2.72,-14.36 0,-11.24 4.25,-20.15 12.75,-26.7 8.51,-6.56 20.32,-9.84 35.44,-9.84 5.76,0 11.08,0.4 15.97,1.2 4.88,0.8 9.07,2.04 12.55,3.72 3.48,1.67 6.22,3.71 8.23,6.12 2.01,2.41 3.01,5.22 3.01,8.43 0,3.08 -0.77,5.79 -2.31,8.14 -1.54,2.34 -3.31,4.31 -5.32,5.92 -3.08,-2.14 -7.16,-3.95 -12.25,-5.42 -5.08,-1.47 -10.64,-2.21 -16.66,-2.21 -6.43,0 -11.18,1 -14.26,3.01 -3.08,2.01 -4.62,4.55 -4.62,7.63 0,2.68 1.01,4.72 3.01,6.12 2.01,1.41 5.16,2.85 9.44,4.32l10.84 3.62c6.3,2.14 11.82,4.45 16.57,6.92 4.75,2.48 8.73,5.29 11.95,8.44 3.21,3.14 5.62,6.76 7.23,10.84 1.6,4.08 2.4,8.73 2.4,13.95 0,5.63 -1.1,10.75 -3.31,15.36 -2.21,4.62 -5.49,8.61 -9.84,11.95 -4.35,3.35 -9.7,5.96 -16.06,7.83 -6.36,1.88 -13.69,2.81 -21.99,2.81 -6.15,0 -11.84,-0.5 -17.06,-1.5 -5.22,-1.01 -9.74,-2.45 -13.56,-4.32 -3.81,-1.87 -6.82,-4.18 -9.03,-6.93 -2.21,-2.74 -3.32,-5.85 -3.32,-9.33 0,-3.62 1.04,-6.63 3.12,-9.04 2.07,-2.41 4.38,-4.35 6.92,-5.82 3.62,2.94 8.14,5.55 13.56,7.83 5.42,2.27 11.54,3.41 18.37,3.41z"/>
   <path id="_13" class="fil1" d="M2625.18 3746.64c-6.29,0 -10.67,-1.08 -13.15,-3.22 -2.48,-2.14 -3.71,-6.02 -3.71,-11.64l0 -108.63c1.47,-0.27 3.58,-0.6 6.32,-1 2.74,-0.41 5.52,-0.61 8.33,-0.61 6.03,0 10.34,1.01 12.95,3.02 2.61,2 3.92,5.95 3.92,11.84l0 108.63c-1.47,0.4 -3.55,0.77 -6.23,1.1 -2.67,0.34 -5.48,0.51 -8.43,0.51z"/>
   <path id="_14" class="fil1" d="M2724.37 3648.85l0 96.18c-1.48,0.4 -3.55,0.77 -6.23,1.1 -2.67,0.34 -5.49,0.51 -8.43,0.51 -6.29,0 -10.71,-1.08 -13.25,-3.22 -2.55,-2.14 -3.82,-6.02 -3.82,-11.64l0 -82.93 -31.52 0c-0.8,-1.34 -1.57,-3.08 -2.31,-5.22 -0.74,-2.14 -1.1,-4.48 -1.1,-7.03 0,-4.55 1,-7.86 3.01,-9.94 2,-2.07 4.75,-3.11 8.23,-3.11l87.74 0c0.94,1.34 1.74,3.08 2.41,5.22 0.67,2.14 1.01,4.49 1.01,7.03 0,4.42 -1.01,7.7 -3.01,9.84 -2.01,2.14 -4.76,3.21 -8.24,3.21l-24.49 0z"/>
   <path id="_15" class="fil1" d="M2879.58 3636c0,1.61 -0.57,3.88 -1.71,6.83 -1.14,2.94 -3.11,7.02 -5.92,12.25 -2.81,5.22 -6.59,11.84 -11.35,19.87 -4.75,8.04 -10.74,17.87 -17.97,29.52l0 40.56c-1.47,0.4 -3.51,0.77 -6.12,1.1 -2.61,0.34 -5.32,0.51 -8.13,0.51 -6.29,0 -10.64,-1.08 -13.05,-3.22 -2.41,-2.14 -3.62,-5.89 -3.62,-11.24l0 -27.91c-3.48,-5.09 -7.23,-10.81 -11.24,-17.17 -4.02,-6.36 -7.97,-12.78 -11.85,-19.27 -3.88,-6.5 -7.5,-12.89 -10.84,-19.18 -3.35,-6.29 -6.03,-11.91 -8.03,-16.87 1.47,-2.27 3.58,-4.35 6.32,-6.22 2.75,-1.87 6.13,-2.81 10.14,-2.81 4.69,0 8.5,0.97 11.45,2.91 2.94,1.94 5.75,5.59 8.43,10.94 0.27,0.4 0.94,1.64 2.01,3.72 1.07,2.07 2.31,4.48 3.71,7.23 1.41,2.74 2.91,5.72 4.52,8.93 1.61,3.21 3.11,6.19 4.52,8.94 1.4,2.74 2.64,5.12 3.71,7.12 1.07,2.01 1.74,3.22 2.01,3.62l1 0c2.15,-4.42 4.12,-8.64 5.93,-12.65 1.8,-4.02 3.58,-8 5.32,-11.95 1.74,-3.95 3.51,-7.96 5.32,-12.05 1.81,-4.08 3.71,-8.53 5.72,-13.35 2.14,-1.07 4.52,-1.91 7.13,-2.51 2.61,-0.6 5.05,-0.9 7.33,-0.9 4.28,0 7.9,1.14 10.84,3.41 2.95,2.28 4.42,5.56 4.42,9.84z"/>
   <path id="_16" class="fil1" d="M2953.47 3746.64c-6.29,0 -10.67,-1.08 -13.15,-3.22 -2.48,-2.14 -3.71,-6.02 -3.71,-11.64l0 -108.63c1.47,-0.27 3.58,-0.6 6.32,-1 2.74,-0.41 5.52,-0.61 8.33,-0.61 6.03,0 10.34,1.01 12.95,3.02 2.61,2 3.92,5.95 3.92,11.84l0 108.63c-1.47,0.4 -3.55,0.77 -6.23,1.1 -2.67,0.34 -5.48,0.51 -8.43,0.51z"/>
   <path id="_17" class="fil1" d="M3103.86 3741.41c-1.88,1.61 -4.42,2.92 -7.63,3.92 -3.21,1 -7.03,1.51 -11.45,1.51 -4.55,0 -8.83,-0.74 -12.85,-2.21 -4.01,-1.47 -7.36,-4.82 -10.04,-10.04l-23.29 -44.98c-2.27,-4.28 -4.38,-8.57 -6.32,-12.85 -1.94,-4.28 -3.85,-8.77 -5.73,-13.45l-1.4 0.4c0.67,8.03 1.07,15.69 1.2,22.99 0.14,7.3 0.2,14.36 0.2,21.18l0 37.35c-1.33,0.27 -3.31,0.57 -5.92,0.9 -2.61,0.34 -5.32,0.51 -8.13,0.51 -6.02,0 -10.24,-1.04 -12.65,-3.12 -2.41,-2.07 -3.61,-5.79 -3.61,-11.14l0 -103.41c1.6,-2.27 4.18,-4.05 7.73,-5.32 3.54,-1.27 7.32,-1.91 11.34,-1.91 4.69,0 9,0.74 12.95,2.21 3.95,1.48 7.26,4.75 9.94,9.84l23.49 45.18c2.28,4.28 4.39,8.57 6.33,12.85 1.94,4.28 3.85,8.77 5.72,13.45l0.8 -0.2c-0.67,-8.97 -1.03,-17.47 -1.1,-25.5 -0.07,-8.03 -0.1,-15.73 -0.1,-23.09l0 -33.33c1.34,-0.27 3.31,-0.6 5.92,-1 2.61,-0.41 5.39,-0.61 8.33,-0.61 6.03,0 10.25,1.04 12.65,3.12 2.41,2.07 3.62,5.79 3.62,11.14l0 105.61z"/>
   <path id="_18" class="fil1" d="M3215.29 3623.55c0.81,1.34 1.54,3.08 2.21,5.22 0.67,2.14 1.01,4.49 1.01,7.03 0,4.42 -0.97,7.7 -2.91,9.84 -1.95,2.14 -4.66,3.21 -8.14,3.21l-44.57 0 0 26.3 45.58 0c0.8,1.48 1.57,3.22 2.31,5.22 0.73,2.01 1.1,4.36 1.1,7.03 0,4.42 -1,7.67 -3.01,9.74 -2.01,2.08 -4.69,3.11 -8.03,3.11l-37.55 0 0 44.78c-1.47,0.4 -3.55,0.77 -6.23,1.1 -2.67,0.34 -5.48,0.51 -8.43,0.51 -6.29,0 -10.67,-1.08 -13.15,-3.22 -2.48,-2.14 -3.71,-6.02 -3.71,-11.64l0 -91.56c0,-5.09 1.5,-9.14 4.51,-12.15 3.01,-3.01 7.06,-4.52 12.15,-4.52l66.86 0z"/>
   <path id="_19" class="fil1" d="M3355.04 3684.19c0,10.44 -1.57,19.68 -4.72,27.71 -3.14,8.03 -7.53,14.76 -13.15,20.18 -5.62,5.42 -12.25,9.54 -19.88,12.35 -7.63,2.81 -15.92,4.21 -24.89,4.21 -8.97,0 -17.27,-1.4 -24.9,-4.21 -7.63,-2.81 -14.22,-6.93 -19.78,-12.35 -5.55,-5.42 -9.9,-12.15 -13.05,-20.18 -3.15,-8.03 -4.72,-17.27 -4.72,-27.71 0,-10.44 1.61,-19.64 4.82,-27.61 3.21,-7.96 7.63,-14.66 13.25,-20.08 5.62,-5.42 12.22,-9.54 19.78,-12.35 7.56,-2.81 15.76,-4.21 24.6,-4.21 8.83,0 17.06,1.4 24.69,4.21 7.63,2.81 14.26,6.93 19.88,12.35 5.62,5.42 10.04,12.12 13.25,20.08 3.22,7.97 4.82,17.17 4.82,27.61zm-32.52 0c0,-12.85 -2.72,-22.52 -8.14,-29.01 -5.42,-6.5 -12.75,-9.74 -21.98,-9.74 -9.11,0 -16.4,3.24 -21.89,9.74 -5.49,6.49 -8.23,16.16 -8.23,29.01 0,12.98 2.71,22.72 8.13,29.21 5.42,6.5 12.75,9.74 21.99,9.74 9.23,0 16.56,-3.24 21.98,-9.74 5.42,-6.49 8.14,-16.23 8.14,-29.21z"/>
   <path class="fil1" d="M1498.35 616.82l0 135.28c-1.75,0.53 -3.98,1.05 -6.69,1.58 -2.71,0.52 -5.81,0.78 -9.31,0.78 -8.04,0 -13.59,-1.31 -16.65,-3.93 -3.05,-2.62 -4.58,-6.9 -4.58,-12.85l0 -13.1c-6.12,4.19 -13.24,7.38 -21.37,9.57 -8.13,2.18 -17.96,3.27 -29.49,3.27 -8.57,0 -16.39,-0.96 -23.47,-2.88 -7.08,-1.92 -13.15,-4.68 -18.22,-8.26 -5.07,-3.58 -9,-7.95 -11.8,-13.11 -2.79,-5.15 -4.19,-11.05 -4.19,-17.69 0,-7.35 1.96,-13.68 5.9,-19.01 3.93,-5.33 9.22,-9.22 15.86,-11.67 -3.5,-1.05 -7.04,-2.58 -10.62,-4.59 -3.58,-2.01 -6.82,-4.58 -9.7,-7.73 -2.88,-3.15 -5.24,-6.86 -7.08,-11.14 -1.83,-4.28 -2.75,-9.13 -2.75,-14.55 0,-6.47 1.27,-12.32 3.8,-17.57 2.53,-5.24 6.12,-9.7 10.75,-13.37 4.63,-3.67 10.05,-6.51 16.25,-8.52 6.21,-2.01 12.98,-3.01 20.32,-3.01 8.04,0 15.08,1.04 21.11,3.14 6.03,2.1 11.01,4.76 14.94,8 3.93,3.23 6.86,6.95 8.78,11.14 1.93,4.19 2.89,8.39 2.89,12.58 0,6.65 -1.71,11.54 -5.12,14.69 -3.4,3.14 -7.82,4.71 -13.23,4.71 -2.63,0 -5.34,-0.43 -8.13,-1.31 -2.8,-0.87 -5.33,-2.09 -7.6,-3.67 0.17,-0.87 0.3,-1.79 0.39,-2.75 0.09,-0.96 0.13,-1.97 0.13,-3.01 0,-3.67 -1.05,-6.86 -3.15,-9.57 -2.09,-2.71 -5.41,-4.07 -9.96,-4.07 -4.54,0 -8.04,1.36 -10.49,4.07 -2.44,2.71 -3.67,6.51 -3.67,11.4 0,7.52 2.93,13.11 8.79,16.78 5.85,3.67 12.97,5.51 21.36,5.51l18.88 0c1.05,1.57 1.97,3.62 2.75,6.16 0.79,2.53 1.18,5.37 1.18,8.52 0,3.14 -0.39,5.98 -1.18,8.52 -0.78,2.53 -1.7,4.5 -2.75,5.9l-22.28 0c-6.3,0 -10.89,1.18 -13.77,3.54 -2.88,2.36 -4.32,5.37 -4.32,9.04 0,4.02 2.18,7.38 6.55,10.09 4.37,2.71 11.01,4.07 19.92,4.07 8.04,0 16.13,-1.44 24.26,-4.33 8.12,-2.88 14.63,-7.38 19.53,-13.5l0 -90.19c0,-2.97 0.87,-5.41 2.62,-7.34 1.75,-1.92 4.02,-2.88 6.81,-2.88l44.57 0c7.17,0 10.75,4.54 10.75,13.63 0,1.92 -0.26,4.28 -0.78,7.08 -0.53,2.8 -1.14,4.98 -1.84,6.55l-24.9 0z"/>
   <path id="_1_0" class="fil1" d="M1662.99 616.82l0 135.28c-1.92,0.53 -4.2,1.05 -6.82,1.58 -2.62,0.52 -5.68,0.78 -9.17,0.78 -8.22,0 -13.81,-1.31 -16.78,-3.93 -2.97,-2.62 -4.46,-6.9 -4.46,-12.85l0 -43.25 -44.04 0c-3.5,14.85 -13.29,22.28 -29.37,22.28 -9.78,0 -17.04,-2.31 -21.76,-6.95 -4.72,-4.63 -7.08,-10.18 -7.08,-16.64 0,-5.6 1.58,-10.93 4.72,-16l6.3 0c3.67,0 6.55,-1.13 8.65,-3.4 2.09,-2.28 3.14,-5.42 3.14,-9.44l0 -47.46 -27.26 0c-4.02,0 -6.82,-1.18 -8.39,-3.53 -1.58,-2.36 -2.36,-5.9 -2.36,-10.62 0,-1.93 0.22,-4.2 0.65,-6.82 0.44,-2.62 1.01,-4.72 1.71,-6.29l168.84 0c7.16,0 10.74,4.54 10.74,13.63 0,1.92 -0.21,4.28 -0.65,7.08 -0.44,2.8 -1.09,4.98 -1.97,6.55l-24.64 0zm-79.44 48.51l42.21 0 0 -48.51 -42.21 0 0 48.51z"/>
   <path id="_2_1" class="fil1" d="M1759.46 544.47c-3.14,-1.23 -6.9,-1.84 -11.27,-1.84 -5.59,0 -10.44,1.84 -14.55,5.51 -4.11,3.67 -6.16,9.08 -6.16,16.25 0,2.97 0.44,6.47 1.31,10.49 0.87,4.02 2.01,7.86 3.41,11.53 0.35,1.4 0.7,2.45 1.05,3.15l21.5 0c7.16,0 10.74,4.54 10.74,13.63 0,1.92 -0.26,4.28 -0.78,7.08 -0.53,2.8 -1.23,4.98 -2.1,6.55l-24.64 0 0 135.28c-1.93,0.53 -4.2,1.05 -6.82,1.58 -2.62,0.52 -5.68,0.78 -9.18,0.78 -8.21,0 -13.8,-1.31 -16.77,-3.93 -2.98,-2.62 -4.46,-6.9 -4.46,-12.85l0 -120.86 -17.04 0c-4.02,0 -6.82,-1.18 -8.39,-3.53 -1.58,-2.36 -2.36,-5.9 -2.36,-10.62 0,-1.93 0.22,-4.2 0.65,-6.82 0.44,-2.62 1.01,-4.72 1.71,-6.29l26.21 0c-3.14,-5.24 -6.99,-10.09 -11.53,-14.55 -4.54,-4.46 -9.44,-8.48 -14.68,-12.06 -5.25,-3.58 -10.53,-6.64 -15.86,-9.18 -5.33,-2.53 -10.18,-4.41 -14.55,-5.63 -0.18,-0.88 -0.27,-1.71 -0.27,-2.49 0,-0.79 0,-1.62 0,-2.5 0,-6.11 1.66,-11.49 4.99,-16.12 3.32,-4.63 8.56,-6.95 15.73,-6.95 7.16,0 14.33,2.32 21.49,6.95 7.17,4.63 13.99,10.62 20.45,17.96 1.23,-8.91 5.07,-16.17 11.54,-21.76 6.46,-5.59 14.24,-8.39 23.33,-8.39 7.17,0 12.59,1.7 16.26,5.11 3.67,3.41 5.5,7.47 5.5,12.19 0,2.63 -0.44,4.98 -1.31,7.08 -0.87,2.1 -1.92,3.85 -3.15,5.25z"/>
   <path id="_3_2" class="fil1" d="M1899.98 616.82c2.45,4.02 4.37,8.48 5.77,13.38 1.4,4.89 2.1,9.96 2.1,15.2 0,12.06 -3.8,22.37 -11.41,30.94 -7.6,8.56 -17.78,14.07 -30.54,16.51 5.59,8.74 12.32,16.17 20.19,22.29 7.86,6.12 16.08,11.01 24.64,14.68 -0.17,6.99 -2.05,12.8 -5.63,17.43 -3.59,4.64 -9.4,6.95 -17.44,6.95 -10.14,0 -20.01,-4.59 -29.62,-13.76 -9.62,-9.18 -17.74,-24.17 -24.39,-44.96 -6.46,0 -11.18,-1.53 -14.15,-4.59 -2.97,-3.06 -4.46,-7.12 -4.46,-12.19 0,-3.15 0.52,-6.08 1.57,-8.79 1.05,-2.71 2.45,-5.11 4.2,-7.21 1.92,0.53 4.45,0.97 7.6,1.32 3.15,0.34 6.38,0.52 9.7,0.52 11.01,0 19.05,-2.36 24.12,-7.08 5.07,-4.72 7.6,-11.01 7.6,-18.88 0,-7.34 -2.18,-14.59 -6.55,-21.76l-53.22 0c-4.02,0 -6.82,-1.18 -8.39,-3.53 -1.57,-2.36 -2.36,-5.9 -2.36,-10.62 0,-1.93 0.22,-4.2 0.66,-6.82 0.43,-2.62 1,-4.72 1.7,-6.29l117.98 0c7.16,0 10.74,4.54 10.74,13.63 0,1.92 -0.26,4.28 -0.78,7.08 -0.53,2.8 -1.14,4.98 -1.84,6.55l-27.79 0z"/>
   <path id="_4_3" class="fil1" d="M2107.89 616.82l0 135.28c-1.92,0.53 -4.2,1.05 -6.82,1.58 -2.62,0.52 -5.68,0.78 -9.17,0.78 -8.22,0 -13.81,-1.31 -16.78,-3.93 -2.97,-2.62 -4.46,-6.9 -4.46,-12.85l0 -57.93c-2.8,0.34 -5.9,0.56 -9.31,0.65 -3.41,0.09 -6.6,0.13 -9.57,0.13 -9.43,0 -18.44,-1.09 -27,-3.28 -8.56,-2.18 -15.99,-4.85 -22.28,-7.99l-6.56 2.36c-9.09,3.32 -15.99,7.38 -20.71,12.19 -4.72,4.81 -7.08,10.88 -7.08,18.22 0,6.64 2.23,11.58 6.69,14.81 4.45,3.24 9.3,4.85 14.55,4.85 4.54,0 8.17,-1.13 10.88,-3.41 2.71,-2.27 4.06,-5.5 4.06,-9.7 0,-1.74 -0.13,-3.32 -0.39,-4.71 -0.26,-1.4 -0.57,-2.98 -0.92,-4.72 2.62,-1.75 5.42,-3.11 8.39,-4.07 2.97,-0.96 6.29,-1.44 9.96,-1.44 7.69,0 13.68,1.97 17.96,5.9 4.28,3.93 6.42,9.31 6.42,16.12 0,5.07 -1.13,9.79 -3.4,14.16 -2.28,4.37 -5.68,8.21 -10.23,11.54 4.2,6.81 8.17,12.71 11.93,17.69 3.76,4.98 7.3,9.31 10.62,12.98 -0.88,5.59 -3.32,9.92 -7.34,12.98 -4.02,3.06 -8.92,4.58 -14.68,4.58 -6.12,0 -11.23,-1.96 -15.34,-5.89 -4.11,-3.94 -6.86,-9.4 -8.26,-16.39l-3.93 -17.57c-4.2,1.05 -9.27,1.58 -15.21,1.58 -7.86,0 -15.42,-0.96 -22.68,-2.89 -7.25,-1.92 -13.63,-4.89 -19.13,-8.91 -5.51,-4.02 -9.92,-9.09 -13.24,-15.21 -3.32,-6.11 -4.99,-13.45 -4.99,-22.02 0,-6.29 0.97,-11.84 2.89,-16.65 1.92,-4.8 4.46,-9.08 7.6,-12.84 3.15,-3.76 6.73,-6.99 10.75,-9.7 4.02,-2.71 8.22,-5.11 12.58,-7.21 -1.92,-0.88 -4.02,-2.23 -6.29,-4.07 -2.27,-1.83 -4.32,-4.06 -6.16,-6.68 -1.83,-2.62 -3.36,-5.59 -4.59,-8.91 -1.22,-3.33 -1.83,-7 -1.83,-11.02 0,-6.99 1.44,-13.06 4.32,-18.22 2.89,-5.15 6.65,-9.43 11.28,-12.84 4.63,-3.41 9.83,-5.9 15.6,-7.47 5.76,-1.58 11.62,-2.36 17.56,-2.36 7.52,0 14.29,1 20.32,3.01 6.03,2.01 11.19,4.76 15.47,8.26 4.28,3.49 7.6,7.56 9.96,12.19 2.36,4.63 3.54,9.66 3.54,15.07 0,5.77 -1.09,11.06 -3.28,15.87 -2.18,4.8 -5.28,8.95 -9.3,12.45 5.24,0.52 11.01,0.79 17.3,0.79 4.02,0 7.95,-0.22 11.8,-0.66 3.84,-0.44 7.6,-1.18 11.27,-2.23l0 -32.25 -5.24 0c-4.02,0 -6.82,-1.18 -8.39,-3.53 -1.58,-2.36 -2.36,-5.9 -2.36,-10.62 0,-1.93 0.22,-4.2 0.65,-6.82 0.44,-2.62 1.01,-4.72 1.71,-6.29l67.64 0c7.16,0 10.75,4.54 10.75,13.63 0,1.92 -0.27,4.28 -0.79,7.08 -0.52,2.8 -1.14,4.98 -1.84,6.55l-24.9 0zm-126.89 8.66c0,3.84 1.18,7.29 3.54,10.35 2.36,3.06 5.2,5.46 8.52,7.21 3.32,-1.4 6.33,-3.76 9.04,-7.08 2.71,-3.32 4.07,-6.81 4.07,-10.48 0,-4.02 -1.18,-7.26 -3.54,-9.7 -2.36,-2.45 -5.29,-3.67 -8.79,-3.67 -3.67,0 -6.72,1.13 -9.17,3.4 -2.45,2.28 -3.67,5.6 -3.67,9.97z"/>
   <path id="_5_4" class="fil1" d="M2182.87 616.82l0 135.28c-1.93,0.53 -4.2,1.05 -6.82,1.58 -2.62,0.52 -5.68,0.78 -9.18,0.78 -8.21,0 -13.8,-1.31 -16.77,-3.93 -2.98,-2.62 -4.46,-6.9 -4.46,-12.85l0 -120.86 -17.04 0c-4.02,0 -6.82,-1.18 -8.39,-3.53 -1.58,-2.36 -2.36,-5.9 -2.36,-10.62 0,-1.93 0.22,-4.2 0.65,-6.82 0.44,-2.62 1.01,-4.72 1.71,-6.29l23.33 0c-1.22,-2.62 -2.23,-5.73 -3.01,-9.31 -0.79,-3.58 -1.18,-7.21 -1.18,-10.88 0,-8.04 1.79,-15.29 5.37,-21.76 3.58,-6.47 8.74,-11.97 15.47,-16.51 6.73,-4.55 14.81,-8.04 24.25,-10.49 9.44,-2.45 20.01,-3.67 31.72,-3.67 12.06,0 23.51,0.83 34.35,2.49 10.83,1.66 20.8,3.89 29.88,6.68 9.09,2.8 17.22,5.9 24.39,9.31 7.16,3.41 13.19,6.95 18.09,10.62 8.04,6.12 12.06,12.15 12.06,18.09 0,4.02 -1.75,7.47 -5.25,10.35 -3.49,2.89 -8.91,4.33 -16.25,4.33 -4.72,-4.37 -10.53,-8.48 -17.44,-12.32 -6.9,-3.85 -14.46,-7.26 -22.67,-10.23 -8.22,-2.97 -16.96,-5.33 -26.22,-7.08 -9.27,-1.74 -18.62,-2.62 -28.05,-2.62 -13.11,0 -23.34,2.45 -30.68,7.34 -7.34,4.9 -11.01,11.63 -11.01,20.19 0,5.94 1.22,11.1 3.67,15.47l18.62 0c7.16,0 10.74,4.54 10.74,13.63 0,1.92 -0.26,4.28 -0.78,7.08 -0.53,2.8 -1.23,4.98 -2.1,6.55l-24.64 0z"/>
   <path id="_6_5" class="fil1" d="M2343.31 616.82l0 135.28c-1.92,0.53 -4.19,1.05 -6.81,1.58 -2.62,0.52 -5.68,0.78 -9.18,0.78 -8.21,0 -13.81,-1.31 -16.78,-3.93 -2.97,-2.62 -4.45,-6.9 -4.45,-12.85l0 -65.01c-3.5,-0.88 -7,-1.58 -10.49,-2.1 -3.5,-0.52 -7.08,-0.79 -10.75,-0.79 -4.72,0 -9.18,0.53 -13.37,1.58 -4.2,1.04 -7.82,2.75 -10.88,5.11 -3.06,2.36 -5.46,5.46 -7.21,9.31 -1.75,3.84 -2.62,8.47 -2.62,13.89 0,8.39 1.96,16.04 5.9,22.94 3.93,6.9 8.6,13.15 14.02,18.75 -1.4,3.84 -3.84,7.12 -7.34,9.83 -3.49,2.71 -8.04,4.06 -13.63,4.06 -5.07,0 -9.88,-1.66 -14.42,-4.98 -4.54,-3.32 -8.48,-7.69 -11.8,-13.11 -3.32,-5.42 -5.94,-11.58 -7.86,-18.48 -1.93,-6.91 -2.89,-13.85 -2.89,-20.84 0,-19.23 5.77,-33.69 17.31,-43.39 11.53,-9.7 27.17,-14.55 46.92,-14.55 4.9,0 9.84,0.3 14.82,0.91 4.98,0.61 9.74,1.45 14.29,2.49l0 -26.48 -102.51 0c-4.02,0 -6.82,-1.18 -8.39,-3.53 -1.58,-2.36 -2.36,-5.9 -2.36,-10.62 0,-1.93 0.22,-4.2 0.65,-6.82 0.44,-2.62 1.01,-4.72 1.71,-6.29l164.9 0c7.17,0 10.75,4.54 10.75,13.63 0,1.92 -0.26,4.28 -0.78,7.08 -0.53,2.8 -1.14,4.98 -1.84,6.55l-24.91 0z"/>
   <path id="_7_6" class="fil1" d="M2505.33 616.82c2.45,4.02 4.37,8.48 5.77,13.38 1.4,4.89 2.1,9.96 2.1,15.2 0,12.06 -3.8,22.37 -11.41,30.94 -7.6,8.56 -17.78,14.07 -30.54,16.51 5.59,8.74 12.32,16.17 20.19,22.29 7.86,6.12 16.08,11.01 24.64,14.68 -0.17,6.99 -2.05,12.8 -5.63,17.43 -3.59,4.64 -9.4,6.95 -17.44,6.95 -10.14,0 -20.01,-4.59 -29.62,-13.76 -9.62,-9.18 -17.74,-24.17 -24.39,-44.96 -6.46,0 -11.18,-1.53 -14.15,-4.59 -2.97,-3.06 -4.46,-7.12 -4.46,-12.19 0,-3.15 0.52,-6.08 1.57,-8.79 1.05,-2.71 2.45,-5.11 4.2,-7.21 1.92,0.53 4.45,0.97 7.6,1.32 3.15,0.34 6.38,0.52 9.7,0.52 11.01,0 19.05,-2.36 24.12,-7.08 5.07,-4.72 7.6,-11.01 7.6,-18.88 0,-7.34 -2.18,-14.59 -6.55,-21.76l-53.22 0c-4.02,0 -6.82,-1.18 -8.39,-3.53 -1.57,-2.36 -2.36,-5.9 -2.36,-10.62 0,-1.93 0.22,-4.2 0.66,-6.82 0.43,-2.62 1,-4.72 1.7,-6.29l117.98 0c7.16,0 10.74,4.54 10.74,13.63 0,1.92 -0.26,4.28 -0.78,7.08 -0.53,2.8 -1.14,4.98 -1.84,6.55l-27.79 0z"/>
   <path id="_8_7" class="fil1" d="M2581.37 616.82l0 135.28c-1.93,0.53 -4.2,1.05 -6.82,1.58 -2.62,0.52 -5.68,0.78 -9.18,0.78 -8.21,0 -13.8,-1.31 -16.77,-3.93 -2.98,-2.62 -4.46,-6.9 -4.46,-12.85l0 -120.86 -17.04 0c-4.02,0 -6.82,-1.18 -8.39,-3.53 -1.58,-2.36 -2.36,-5.9 -2.36,-10.62 0,-1.93 0.22,-4.2 0.65,-6.82 0.44,-2.62 1.01,-4.72 1.71,-6.29l23.07 0c-1.22,-2.27 -2.19,-5.03 -2.88,-8.26 -0.7,-3.23 -1.05,-6.6 -1.05,-10.09 0,-8.04 2.01,-15.38 6.03,-22.03 4.02,-6.64 9.96,-12.36 17.82,-17.17 7.87,-4.8 17.66,-8.52 29.37,-11.14 11.71,-2.62 25.17,-3.93 40.37,-3.93 13.98,0 27.53,0.87 40.64,2.62 13.11,1.75 25.34,4.06 36.7,6.95 11.36,2.88 21.54,6.2 30.54,9.96 9.01,3.76 16.39,7.56 22.16,11.4 4.19,2.8 7.43,5.42 9.7,7.87 2.27,2.45 3.41,5.16 3.41,8.13 0,3.67 -1.32,6.81 -3.94,9.43 -2.62,2.63 -6.46,4.29 -11.53,4.99 -7.69,-4.2 -16.17,-8.22 -25.43,-12.06 -9.27,-3.85 -19.18,-7.21 -29.76,-10.1 -10.57,-2.88 -21.67,-5.2 -33.29,-6.95 -11.63,-1.74 -23.64,-2.62 -36.05,-2.62 -19.58,0 -34.26,2.71 -44.05,8.13 -9.79,5.42 -14.68,12.41 -14.68,20.97 0,2.63 0.35,5.12 1.05,7.48 0.7,2.36 1.57,4.5 2.62,6.42l18.62 0c7.16,0 10.74,4.54 10.74,13.63 0,1.92 -0.26,4.28 -0.78,7.08 -0.53,2.8 -1.23,4.98 -2.1,6.55l-24.64 0z"/>
   <path id="_9_8" class="fil1" d="M2788.22 616.82l0 135.28c-1.92,0.53 -4.2,1.05 -6.82,1.58 -2.62,0.52 -5.68,0.78 -9.17,0.78 -8.22,0 -13.81,-1.31 -16.78,-3.93 -2.97,-2.62 -4.46,-6.9 -4.46,-12.85l0 -57.93c-2.8,0.34 -5.9,0.56 -9.31,0.65 -3.41,0.09 -6.6,0.13 -9.57,0.13 -9.43,0 -18.44,-1.09 -27,-3.28 -8.56,-2.18 -15.99,-4.85 -22.28,-7.99l-6.56 2.36c-9.09,3.32 -15.99,7.38 -20.71,12.19 -4.72,4.81 -7.08,10.88 -7.08,18.22 0,6.64 2.23,11.58 6.69,14.81 4.45,3.24 9.3,4.85 14.55,4.85 4.54,0 8.17,-1.13 10.88,-3.41 2.71,-2.27 4.06,-5.5 4.06,-9.7 0,-1.74 -0.13,-3.32 -0.39,-4.71 -0.26,-1.4 -0.57,-2.98 -0.92,-4.72 2.62,-1.75 5.42,-3.11 8.39,-4.07 2.97,-0.96 6.29,-1.44 9.96,-1.44 7.69,0 13.68,1.97 17.96,5.9 4.28,3.93 6.42,9.31 6.42,16.12 0,5.07 -1.13,9.79 -3.4,14.16 -2.28,4.37 -5.68,8.21 -10.23,11.54 4.2,6.81 8.17,12.71 11.93,17.69 3.76,4.98 7.3,9.31 10.62,12.98 -0.88,5.59 -3.32,9.92 -7.34,12.98 -4.02,3.06 -8.92,4.58 -14.68,4.58 -6.12,0 -11.23,-1.96 -15.34,-5.89 -4.11,-3.94 -6.86,-9.4 -8.26,-16.39l-3.93 -17.57c-4.2,1.05 -9.27,1.58 -15.21,1.58 -7.86,0 -15.42,-0.96 -22.68,-2.89 -7.25,-1.92 -13.63,-4.89 -19.13,-8.91 -5.51,-4.02 -9.92,-9.09 -13.24,-15.21 -3.32,-6.11 -4.99,-13.45 -4.99,-22.02 0,-6.29 0.97,-11.84 2.89,-16.65 1.92,-4.8 4.46,-9.08 7.6,-12.84 3.15,-3.76 6.73,-6.99 10.75,-9.7 4.02,-2.71 8.22,-5.11 12.58,-7.21 -1.92,-0.88 -4.02,-2.23 -6.29,-4.07 -2.27,-1.83 -4.32,-4.06 -6.16,-6.68 -1.83,-2.62 -3.36,-5.59 -4.59,-8.91 -1.22,-3.33 -1.83,-7 -1.83,-11.02 0,-6.99 1.44,-13.06 4.32,-18.22 2.89,-5.15 6.65,-9.43 11.28,-12.84 4.63,-3.41 9.83,-5.9 15.6,-7.47 5.76,-1.58 11.62,-2.36 17.56,-2.36 7.52,0 14.29,1 20.32,3.01 6.03,2.01 11.19,4.76 15.47,8.26 4.28,3.49 7.6,7.56 9.96,12.19 2.36,4.63 3.54,9.66 3.54,15.07 0,5.77 -1.09,11.06 -3.28,15.87 -2.18,4.8 -5.28,8.95 -9.3,12.45 5.24,0.52 11.01,0.79 17.3,0.79 4.02,0 7.95,-0.22 11.8,-0.66 3.84,-0.44 7.6,-1.18 11.27,-2.23l0 -32.25 -5.24 0c-4.02,0 -6.82,-1.18 -8.39,-3.53 -1.58,-2.36 -2.36,-5.9 -2.36,-10.62 0,-1.93 0.22,-4.2 0.65,-6.82 0.44,-2.62 1.01,-4.72 1.71,-6.29l67.64 0c7.16,0 10.75,4.54 10.75,13.63 0,1.92 -0.27,4.28 -0.79,7.08 -0.52,2.8 -1.14,4.98 -1.84,6.55l-24.9 0zm-126.89 8.66c0,3.84 1.18,7.29 3.54,10.35 2.36,3.06 5.2,5.46 8.52,7.21 3.32,-1.4 6.33,-3.76 9.04,-7.08 2.71,-3.32 4.07,-6.81 4.07,-10.48 0,-4.02 -1.18,-7.26 -3.54,-9.7 -2.36,-2.45 -5.29,-3.67 -8.79,-3.67 -3.67,0 -6.72,1.13 -9.17,3.4 -2.45,2.28 -3.67,5.6 -3.67,9.97z"/>
   <path id="_10_9" class="fil1" d="M2948.66 616.82l0 135.28c-1.92,0.53 -4.19,1.05 -6.81,1.58 -2.62,0.52 -5.68,0.78 -9.18,0.78 -8.21,0 -13.81,-1.31 -16.78,-3.93 -2.97,-2.62 -4.45,-6.9 -4.45,-12.85l0 -65.01c-3.5,-0.88 -7,-1.58 -10.49,-2.1 -3.5,-0.52 -7.08,-0.79 -10.75,-0.79 -4.72,0 -9.18,0.53 -13.37,1.58 -4.2,1.04 -7.82,2.75 -10.88,5.11 -3.06,2.36 -5.46,5.46 -7.21,9.31 -1.75,3.84 -2.62,8.47 -2.62,13.89 0,8.39 1.96,16.04 5.9,22.94 3.93,6.9 8.6,13.15 14.02,18.75 -1.4,3.84 -3.84,7.12 -7.34,9.83 -3.49,2.71 -8.04,4.06 -13.63,4.06 -5.07,0 -9.88,-1.66 -14.42,-4.98 -4.54,-3.32 -8.48,-7.69 -11.8,-13.11 -3.32,-5.42 -5.94,-11.58 -7.86,-18.48 -1.93,-6.91 -2.89,-13.85 -2.89,-20.84 0,-19.23 5.77,-33.69 17.31,-43.39 11.53,-9.7 27.17,-14.55 46.92,-14.55 4.9,0 9.84,0.3 14.82,0.91 4.98,0.61 9.74,1.45 14.29,2.49l0 -26.48 -102.51 0c-4.02,0 -6.82,-1.18 -8.39,-3.53 -1.58,-2.36 -2.36,-5.9 -2.36,-10.62 0,-1.93 0.22,-4.2 0.65,-6.82 0.44,-2.62 1.01,-4.72 1.71,-6.29l164.9 0c7.17,0 10.75,4.54 10.75,13.63 0,1.92 -0.26,4.28 -0.78,7.08 -0.53,2.8 -1.14,4.98 -1.84,6.55l-24.91 0z"/>
   <path id="_11_10" class="fil1" d="M2977.24 648.29c0,-6.65 2.1,-12.24 6.29,-16.78 4.2,-4.55 9.88,-6.82 17.05,-6.82 7.34,0 13.06,2.27 17.17,6.82 4.11,4.54 6.16,10.13 6.16,16.78 0,6.64 -2.05,12.19 -6.16,16.64 -4.11,4.46 -9.83,6.69 -17.17,6.69 -7.17,0 -12.85,-2.23 -17.05,-6.69 -4.19,-4.45 -6.29,-10 -6.29,-16.64zm-1.05 83.89c0,-6.64 2.06,-12.24 6.16,-16.78 4.11,-4.54 9.75,-6.82 16.91,-6.82 7.35,0 13.07,2.28 17.18,6.82 4.1,4.54 6.16,10.14 6.16,16.78 0,6.64 -2.06,12.23 -6.16,16.78 -4.11,4.54 -9.83,6.81 -17.18,6.81 -7.16,0 -12.8,-2.27 -16.91,-6.81 -4.1,-4.55 -6.16,-10.14 -6.16,-16.78z"/>
   <g>
    <g>
     <path class="fil2" d="M1238.08 1912.29l6.4 0c12.54,-154.21 49.34,-291.9 149.97,-444.91 129.67,-197.15 347.47,-359.68 648.89,-400.22 371.83,-50 707.45,130.5 889.09,412.45l0.45 0.23 0 0.47c34.82,54.14 63.99,111.99 86.61,172.68 35.89,96.26 50.04,173.5 55.6,259.3l3.63 0 0 -899.9 -1840.64 0 0 899.9z"/>
     <path class="fil0 str1" d="M1244.48 1912.29c12.54,-154.21 49.34,-291.9 149.97,-444.91 129.67,-197.15 347.47,-359.68 648.89,-400.22 371.83,-50 707.45,130.5 889.09,412.45l0.45 0.23 0 0.47c34.82,54.14 63.99,111.99 86.61,172.68 35.89,96.26 50.04,173.5 55.6,259.3m3.63 0l0 -899.9 -1840.64 0 0 899.9"/>
    </g>
    <path class="fil2" d="M2276.32 1692.89c-10.15,-13.51 -12.44,-35.34 -15.37,-53.49 -16.49,-102.04 -61.28,-218.35 -145.31,-282.76 -16.03,7.82 -26.69,21.44 -32.49,39.19 48.83,62.94 79.7,92.73 108.99,184.67 23.92,75.07 31.75,169.89 11.78,251.92 -58.1,238.74 -56.96,262.05 -65.49,511.54 -25.17,-52.73 -45.83,-104.55 -73.09,-154.63 -31.64,-58.13 -62.52,-96.24 -87.42,-146.98 -27.91,-56.87 -29.68,-126.95 -3.91,-192.73 26.65,-68.06 65.37,-83.87 105.95,-125.73 -3.31,-12.45 -1.47,-9.98 -8.55,-22.36 -7.92,-13.86 -5.92,-10.2 -16.03,-19.57 -114.83,44.86 -131.09,172.52 -153.99,223.22l-16.92 -23.77c-73.94,-136.64 -67.31,-295.89 77.33,-385.15 -0.27,-21.42 -5.51,-29.57 -13.54,-46.63 -49.61,2.8 -112.25,78.08 -135.52,125.76 -62.34,127.75 -6.28,288.24 61.87,402.88 17.9,30.12 86.46,133.58 93.74,159.85 -29.45,-11.39 -75.97,-40.9 -109.61,-57.56 -130.37,-64.54 -212.02,-78.55 -245.4,-248.5l-51.12 0.39c4.36,141.3 85.27,206.04 187.37,258.07 66.34,33.8 240.05,97.71 274.61,176.23 -111.83,-31.74 -125.67,-71.19 -278.23,-18.87l19.21 47.12c74.28,-10.63 112.81,-31.28 192.54,2.05 249.55,104.34 157.05,597.94 -303.35,537.41 -193.88,-25.5 -226.41,-119.62 -290.39,-148.14 7.3,84.61 26.79,102.9 92.49,138.57l158.94 63.97 -32.63 22.32c-31.68,19.75 -70.72,40.16 -89.43,71.41 7.91,16.2 14.6,19.87 22.05,37.55 33.15,-8.3 51.44,-31.73 78.72,-50.17 78.34,-52.94 167.4,-80.88 268.14,-87.85 -9.4,17.02 -176.76,161.82 -201.95,276.03l40.22 29.71c13.41,-11.79 45.58,-79.94 63.84,-107.88 60.48,-92.48 178.78,-212.06 286.52,-240.99 -11.72,64.27 -64.95,170.03 -96.02,230.24l-94.89 146.65c-12.24,15.56 -22.79,24.41 -30.03,41.22 16.18,15.77 29.15,18.23 53.76,22.16 19.77,-34.85 59.36,-81.45 79.36,-114.47 11.5,-18.99 58.71,-107.04 69.53,-114.21 2.29,90.46 7.63,209.7 45.66,277.7l56.04 0.51c-5.89,-36.42 -26.34,-79.07 -35.83,-127.99 -18.82,-96.99 -10.68,-204.78 16.89,-299.38 10.31,-35.38 19.82,-87.83 47.15,-114.87 1.08,1.3 2.48,3.11 3.1,4.01l25.69 56.09c7.91,22.57 13.49,36.4 19.55,60.47 62.26,247.07 -1.98,301.5 -20.24,423.88l55.06 -4.42c48.93,-74.09 36.87,-196.41 47.79,-280.64 34.75,76.49 105.31,167.1 147.28,232.87 24.1,-3.59 38.6,-7.52 54.47,-21.71 -16.74,-26.9 -47.19,-62.55 -66.62,-92.12 -58.4,-88.92 -136.47,-221.41 -155.46,-326.72 141.26,39.05 289.94,211.02 345.13,350.39 20.48,-6.49 31.68,-16.06 45.38,-31.98 -14.32,-67.47 -92.21,-161.31 -140.42,-213.45 -14.94,-16.14 -45.35,-36.56 -55.29,-60.52 70.23,6.19 138.46,24.51 193.98,49.48 52.71,23.7 122.49,83.51 143.96,88.53l24.68 -38.12c-20.61,-38.7 -86.44,-62.47 -123.96,-93.73 21.27,-14.22 57.66,-17.86 84.28,-27.55 90.56,-32.97 160.81,-64.69 170.1,-175.56 -82.42,48.97 -122.89,142.46 -336.41,152.71 -500.73,24.03 -486.87,-592.89 -194.58,-615.34 107.88,-8.29 120.93,43.44 182.02,63.07 9.7,-12.83 18.08,-21.12 27.79,-33.37 -28.95,-51.03 -115.57,-77.49 -183.49,-86.01 5.52,-6.75 3.39,-4.34 10.74,-10.93l30.51 -23.03c97.91,-73.69 173.78,-156.29 164.64,-302.06l-48.72 3.65c-21.94,72.11 1.33,100.32 -60.13,172.95 -38.12,45.04 -70.81,70.35 -122.48,104.95 -254.03,170.14 -184.37,185.76 -233.26,220.03 -14.97,-637.6 235.99,-697.56 279.62,-782.55 -11.48,-18.21 -13.46,-25.23 -33.51,-34.95 -25.66,13.9 -71.57,63.56 -91.32,84.46 -27.81,29.41 -44.15,60.18 -76.07,93.56z"/>
    <path class="fil2" d="M1232.85 2399.97l45.79 0c-0.42,-110.22 3.4,-224.99 3.4,-327.38 0,-168.09 10.18,-296.54 69.39,-432.9 359.35,-827.62 1598.92,-646.51 1681.61,275.63 12.83,143.01 3.05,333.67 2.45,484.65l51.92 0c0.18,-85.19 -2.24,-177.35 -2.24,-280.51 0,-191.08 2.13,-300.23 -59.63,-464.91 -141.74,-377.97 -536.83,-646.74 -983.81,-586.99 -303.79,40.62 -523.29,203.47 -653.98,401.02 -188.18,284.44 -154.89,516.03 -154.89,898.6 0,11.19 -0.01,22.11 -0.01,32.79z"/>
    <path class="fil2" d="M1476.09 2202.55c13.44,72.69 103.52,101.45 181.27,81.68 -15.19,-57.41 -105.04,-120.3 -181.27,-81.68z"/>
    <path class="fil2" d="M2631.14 2326.46c38.08,54.7 165.58,54.36 195.09,-6.69 -52.87,-51.76 -148.55,-48.2 -195.09,6.69z"/>
    <path class="fil2" d="M2457.09 1462.25c29.25,-10.39 48.88,-37.98 59.74,-73.6 16.5,-54.16 1.44,-73.88 -9.13,-117.18 -74.63,24.37 -91.31,139.27 -50.61,190.78z"/>
    <path class="fil2" d="M1417.05 2132.3c17.18,12.13 26.14,14.85 55.85,14.59 55.57,-0.51 112.64,-34.32 126.14,-81.54 -73.41,-44.06 -168.12,14.1 -181.99,66.95z"/>
    <path class="fil2" d="M1573.92 2413.5c66.62,40.29 170.08,-18.01 180.57,-78.72 -77.87,-19.09 -165.27,7.79 -180.57,78.72z"/>
    <path class="fil2" d="M2804.11 2100.73c73.02,-7.98 126.75,-77.58 118.17,-159.48 -37.65,-3.98 -70.06,25.24 -87.41,46.67 -25.9,31.99 -34.38,64.78 -30.76,112.81z"/>
    <path class="fil2" d="M2371.07 2286.29c8.53,60.2 135.84,103.57 186.64,53.56 -23.91,-47.87 -114.27,-97.92 -186.64,-53.56z"/>
    <path class="fil2" d="M2706.27 2219.34c67.1,50.23 169.78,0.61 191.41,-53.42 -42.48,-12.69 -63.72,-25.68 -114.94,-10.12 -28.96,8.8 -66.04,33.55 -76.47,63.54z"/>
    <path class="fil2" d="M2460.26 2440.28c33.97,56.96 170.83,48.87 193.53,-15.99 -30.29,-14.74 -61.36,-31.57 -102.7,-29.12 -33.13,1.97 -73.48,17.12 -90.83,45.11z"/>
    <path class="fil2" d="M1995.12 1392.25c71.18,-24.11 85.89,-107.59 67.48,-184.45 -34.45,6.26 -55.93,32.93 -70.78,64.3 -13.42,28.32 -19.85,75.87 -5.88,106.04 4.18,9.02 6.07,10.03 9.18,14.11z"/>
    <path class="fil2" d="M2415.48 2512.88c6.8,-83.27 -48.45,-147.68 -127.55,-154.96 -1.27,89.59 48.49,142.57 127.55,154.96z"/>
    <path class="fil2" d="M2477.73 1984.78c62.71,-14.65 98.67,-123.37 59.71,-187.14 -68.63,15.22 -87.63,116.18 -59.71,187.14z"/>
    <path class="fil2" d="M1603.18 2145.69c6.9,13.73 1.91,7.02 11.95,18.58 34.5,39.73 119.02,54.21 178.94,14.9 -10.62,-51.83 -105.86,-75.69 -164.64,-51.07l-26.25 17.59z"/>
    <path class="fil2" d="M2697.28 1811.9c85.68,10.05 146.28,-52.92 151.72,-129.71 -85.38,2.33 -142.1,50.37 -151.72,129.71z"/>
    <path class="fil2" d="M2602.03 1780.13c34.86,-84.79 0.69,-151.73 -57.9,-188.62 -37.89,40.44 -23,161.9 57.9,188.62z"/>
    <path class="fil2" d="M1807.75 1490.34c1.66,-85.86 -42.14,-152.57 -118.4,-160.62 -10.26,83.26 45,157.72 118.4,160.62z"/>
    <path class="fil2" d="M1628.69 1789.85c75.95,-8.29 125.34,-74.46 120.89,-160.05 -78.4,7.73 -129.52,81.75 -120.89,160.05z"/>
    <path class="fil2" d="M2271 1373.3c79.64,-0.44 132.89,-66.02 135.61,-147.2 -78.07,6.19 -140.24,65.31 -135.61,147.2z"/>
    <path class="fil2" d="M2584.12 2151.27c126.75,17.35 186.54,-81.51 167.57,-98.82 -27.02,-24.66 -152.62,8.96 -167.57,98.82z"/>
    <path class="fil2" d="M1561.31 1523.03c5.68,11.32 -2.71,3.23 13.54,18.54 46.12,43.47 142.6,46.78 180.81,1.55 -30.66,-49.78 -136.52,-74.15 -194.35,-20.09z"/>
    <path class="fil2" d="M2283.45 1570.42c72.38,-1.61 112.41,-108.96 85.12,-179.91 -72.06,29.32 -96.77,85.89 -85.12,179.91z"/>
    <path class="fil2" d="M2371.34 1837.9c76.74,-6.02 111.03,-93.91 98.18,-174.06 -33.72,6.36 -60.51,31.67 -77.2,55.6 -27.07,38.82 -25.71,66.52 -20.98,118.46z"/>
    <path class="fil2" d="M2102.25 2119.01c32.19,-75.81 -5.47,-164.74 -70.03,-182.94 -21.4,65.57 -4.18,177.47 70.03,182.94z"/>
    <path class="fil2" d="M2024.64 2510.9c8.82,-81.14 -40.28,-158.25 -108.53,-164.27 -5.56,46.16 -0.77,80.1 24.12,114.95 13.76,19.27 49.17,56.28 84.41,49.32z"/>
    <path class="fil2" d="M1516.94 1874.92c20.31,-78.78 -37.55,-155.27 -103.25,-165.33 -14.92,114.18 65.08,175.87 103.25,165.33z"/>
    <path class="fil2" d="M2517.35 1517.91c73.27,29.41 170.63,-22.93 174.43,-81.66 -119.44,-27.42 -187.46,51.15 -174.43,81.66z"/>
    <path class="fil2" d="M2142.49 1639.06c2.79,-51.56 -3.57,-83.56 -27.53,-115.66 -19.05,-25.53 -53.33,-50.16 -82.74,-50.02 -10.39,79.76 35.09,159.13 110.27,165.68z"/>
    <path class="fil2" d="M1870.26 1431.94c30.58,-17.04 48.38,-62.51 49.62,-97.9 1.51,-42.78 -15.74,-81.3 -38.58,-97.24 -58.18,49.4 -56.89,137.6 -11.04,195.14z"/>
    <path class="fil2" d="M1890.13 1742.7c39.28,0.37 67.21,-37.59 79.24,-58.55 20.46,-35.65 21.16,-69.72 12.9,-115.92 -69.37,11.92 -104.83,84.77 -92.14,174.47z"/>
    <path class="fil2" d="M2434.56 2050.5c11.62,-83.37 -41.1,-164 -109.39,-165.5 -8.34,86.23 41.77,162.24 109.39,165.5z"/>
    <path class="fil2" d="M2667.24 1713.26c61.3,-17.27 100.15,-121.82 57.67,-185.99 -68.27,13.76 -85.14,120.16 -57.67,185.99z"/>
    <path class="fil2" d="M2269.63 2182c59.67,-34.16 74.75,-140.78 26.78,-192.66 -59.28,26.58 -74.88,138.14 -26.78,192.66z"/>
    <path class="fil2" d="M2026.09 1895.28c79.77,-1.22 140.69,-60.11 142.47,-138.11 -77.83,-8.04 -139.13,60.9 -142.47,138.11z"/>
    <path class="fil2" d="M2230.15 1363.71c8.83,-81.89 -33.02,-164.97 -109.54,-165.36 -1.75,81.03 27.79,153.91 109.54,165.36z"/>
    <path class="fil2" d="M1564.94 2009.99c-4.81,-66.37 -84.52,-111.01 -168.89,-101.18 -8.14,32.27 28.83,66.47 51.7,81.1 31.19,19.93 71.73,26.24 117.19,20.08z"/>
    <path class="fil2" d="M1811.3 1981.91c-1.13,-72.69 -61.72,-156.17 -135.95,-143.2 3.29,75.24 62.75,151.29 135.95,143.2z"/>
    <path class="fil2" d="M1768.92 2512.93c69.06,-15.97 97.15,-94.55 80.95,-181.86 -67.19,9.53 -106.13,99.91 -80.95,181.86z"/>
    <path class="fil2" d="M2713.28 1983.76c75.59,7.69 134.92,-69.17 134.55,-147.9 -78.64,11.61 -131.01,59.89 -134.55,147.9z"/>
    <path class="fil2" d="M1575.63 1766.13c24.89,-64.19 26.51,-166.93 -44.5,-191.78 -22.08,57.74 -34.38,99.92 3.33,161.58 14.95,24.43 18.14,25.81 41.17,30.2z"/>
   </g>
  </g>
 </g>
</svg>
